inDegrees=no
num_controls=7
num_derivatives=13
num_iterations=144
num_multipliers=7
num_parameters=0
num_slacks=7
num_states=26
objective=5.813595
objective_accelerations=0.676386
objective_balance=0.019690
objective_effort=0.485833
objective_height=4.538097
objective_ligament=0.093589
solver_duration=1300.095634
status=Solve_Succeeded
success=true
DataType=double
version=3
OpenSimVersion=4.4-2022-07-23-0e9fedc
endheader
time	/jointset/ground_pelvis/pelvis_tilt/value	/jointset/ground_pelvis/pelvis_tx/value	/jointset/ground_pelvis/pelvis_ty/value	/jointset/hip_r/hip_flexion_r/value	/jointset/hip_r/hip_adduction_r/value	/jointset/hip_r/hip_rotation_r/value	/jointset/back/lumbar_extension/value	/jointset/patellofemoral_r/patellar_flexion_r/value	/jointset/knee_r/knee_flexion_r/value	/jointset/knee_r/knee_adduction_r/value	/jointset/knee_r/knee_rotation_r/value	/jointset/ankle_r/ankle_angle_r/value	/jointset/subtalar_r/subtalar_angle_r/value	/jointset/ground_pelvis/pelvis_tilt/speed	/jointset/ground_pelvis/pelvis_tx/speed	/jointset/ground_pelvis/pelvis_ty/speed	/jointset/hip_r/hip_flexion_r/speed	/jointset/hip_r/hip_adduction_r/speed	/jointset/hip_r/hip_rotation_r/speed	/jointset/back/lumbar_extension/speed	/jointset/patellofemoral_r/patellar_flexion_r/speed	/jointset/knee_r/knee_flexion_r/speed	/jointset/knee_r/knee_adduction_r/speed	/jointset/knee_r/knee_rotation_r/speed	/jointset/ankle_r/ankle_angle_r/speed	/jointset/subtalar_r/subtalar_angle_r/speed	/forceset/tau_hip_flexion_r	/forceset/tau_hip_adduction_r	/forceset/tau_hip_rotation_r	/forceset/tau_knee_flexion_r	/forceset/tau_ankle_angle_r	/forceset/tau_subtalar_angle_r	/forceset/tau_lumbar_extension	lambda_cid13_p0	lambda_cid14_p0	lambda_cid14_p1	lambda_cid14_p2	lambda_cid14_p3	lambda_cid14_p4	lambda_cid14_p5	/jointset/ground_pelvis/pelvis_tilt/accel	/jointset/ground_pelvis/pelvis_tx/accel	/jointset/ground_pelvis/pelvis_ty/accel	/jointset/hip_r/hip_flexion_r/accel	/jointset/hip_r/hip_adduction_r/accel	/jointset/hip_r/hip_rotation_r/accel	/jointset/back/lumbar_extension/accel	/jointset/patellofemoral_r/patellar_flexion_r/accel	/jointset/knee_r/knee_flexion_r/accel	/jointset/knee_r/knee_adduction_r/accel	/jointset/knee_r/knee_rotation_r/accel	/jointset/ankle_r/ankle_angle_r/accel	/jointset/subtalar_r/subtalar_angle_r/accel	gamma_cid13_p0	gamma_cid14_p0	gamma_cid14_p1	gamma_cid14_p2	gamma_cid14_p3	gamma_cid14_p4	gamma_cid14_p5
0.5	-0.1583723008572899	0.01820975274696055	0.7948329702023407	0.9480798520716697	-0.2196046038480282	-0.1299861214855856	-0.6529350508742421	0.9925617543946692	0.9925617543946657	-0.0725775095097204	0.174517480656166	0.2993633689004397	0.1457634232203302	-0.4198408081926658	-0.2122977607988509	-0.5510182356637746	2.020667223753813	-0.04055246177275437	0.2067781965001912	-0.7333055364767053	2.032970542404033	2.032970542404033	-0.4191052646034965	-0.0003364621593880356	0.5330816639900579	0.1532288433543872	-0.209503998956581	0.006796733472022605	0.01629757841331729	-0.2909814926261308	0.003133919053202154	0.004650326213547739	0.2477646232473107	-6.734461449481165	-41.07182368883158	-4.294990467327445	0.105211215881075	-4.416212179825953	-639.3202615619294	64.38933947908561	0.432462342021733	0.6457906069083806	-0.4587192389864204	-1.342801005355467	-0.194260356308829	-0.4348676777593419	1.904820163234192	-1.393058009945827	-1.393058009945825	0.5608350020879227	-0.04761014494489402	-0.6575233164091179	-0.4177469497903153	-8.436400093809318e-08	8.643451761226788e-08	1.916008176935258e-06	3.212563349140019e-07	-2.385576116517556e-07	-1.760028354430663e-07	1.31999023700654e-06
0.51	-0.1625481440667063	0.01611923342150315	0.7893011567752803	0.9682162136801412	-0.2200202397651189	-0.1279419538924786	-0.6601723783566336	1.01281854316701	1.012818543166994	-0.07674055194933645	0.1745139472084183	0.3046601542006558	0.1472736062162958	-0.4152585809421767	-0.2057902945581122	-0.555218369133607	2.006331649967537	-0.04256936290944178	0.2020991148459167	-0.7140790659069368	2.018109881728486	2.018109881728495	-0.4134213454084748	-0.0003713822600804392	0.5261854266245614	0.1487600001360344	-0.2164424652953398	0.007235017489306828	0.01656893016579906	-0.2961907055225774	0.002034922372054368	0.005231895962759187	0.254154051710134	-5.84022597192046	-41.75488913205582	-4.290613251687588	0.2514032968695373	-4.323076144482378	-644.8444644408518	65.05143262744313	0.4815089344863951	0.655542362561614	-0.3817803622611177	-1.519933903822568	-0.2044091216569769	-0.4779645378223185	1.943694618008558	-1.57415550885594	-1.574155508854605	0.5847261591061509	0.01856598054298006	-0.7192285375464114	-0.4682285675046305	-6.374574306981338e-08	1.257028090126404e-07	1.995050059252117e-06	6.067849384215162e-07	-2.674361062143062e-07	-1.53337305949644e-07	1.414862799878427e-06
0.52	-0.1666760838000406	0.01409425230443392	0.7837311180212656	0.9882010198830308	-0.2204558455194377	-0.1259432843416323	-0.6672150143104968	1.032918408250104	1.032918408250063	-0.08084424404081958	0.1745100643442846	0.3098852662090318	0.1487377456681485	-0.410260112974712	-0.1991901191212168	-0.5586633010546217	1.990356142638905	-0.04454642921846651	0.1976785880491896	-0.6943672307707338	2.001585804553063	2.00158580455308	-0.4072351949775783	-0.0004063454337587204	0.5187470056220029	0.1440201345317834	-0.2233809316341144	0.007673301506567987	0.01684028191812727	-0.301399918419042	0.0009359256909023241	0.005813465711935501	0.2605434801729447	-5.012542243304477	-42.43378586486357	-4.276802404371625	0.3861511271767662	-4.260510454146604	-650.3308890057825	65.74081125991898	0.5157104854169247	0.6643324461396919	-0.3076789292229099	-1.670787713826593	-0.1862933907765156	-0.3831567062502295	2.00189307652106	-1.725741309921175	-1.725741309921162	0.6612812492629399	-0.04761875954146116	-0.7659600438215729	-0.4719514269702987	-4.971726873956052e-08	1.366301093703495e-07	1.904802264023669e-06	6.704091172675456e-07	-2.649812191312426e-07	-1.393361059993195e-07	1.39713243160219e-06
0.53	-0.17075206112999	0.01213567067561294	0.7781304291423879	1.008018083770235	-0.2209108731102999	-0.1239875946457221	-0.6740581892305177	1.052844875515458	1.052844875515452	-0.08488395054511366	0.1745056744493574	0.3150334196953657	0.1501533893672649	-0.4048705029843578	-0.1925163949939628	-0.5613447474565635	1.972792194155731	-0.04644630226088338	0.1934928332860961	-0.6742014679157632	1.983440989849719	1.983440989849726	-0.4006428347382043	-0.0004703969279300657	0.5108041091600855	0.1390752082562391	-0.2301768596375466	0.008414547791436872	0.01704796288388402	-0.306797720764088	-2.508830080316513e-05	0.006101231059421341	0.2667799722891186	-4.251498753588455	-43.10252288386086	-4.415311191787684	0.5754499096570376	-4.143207395042987	-655.9111838755326	66.13215894332396	0.56033438362692	0.6703114050065412	-0.2289448024599689	-1.838842748173818	-0.1897261769763682	-0.4313362939973351	2.033860687584953	-1.898841880909267	-1.898841880910839	0.6679446280640722	0.0145850093691612	-0.8204419812176348	-0.5103986788273092	-3.832996455252012e-08	1.458154840413397e-07	1.82541705432844e-06	7.134508511952895e-07	-2.634754574410796e-07	-1.261132490975071e-07	1.384571899753045e-06
